<svg width="762" height="913" viewBox="0 0 762 913" fill="none" xmlns="http://www.w3.org/2000/svg">
<g opacity="0.1">
<path d="M296.542 -17.0889C450.566 3.11533 303.16 127.609 414.447 216.897C516.436 298.725 717.756 153.307 723.105 383.646C726.766 541.346 772.149 603.746 897.325 648.366" stroke="black"/>
<path d="M304.271 -24.8771C458.296 -4.67288 310.89 119.821 422.177 209.109C524.166 290.937 725.486 145.519 730.835 375.858C734.496 533.558 779.879 595.958 905.055 640.578" stroke="black"/>
<path d="M312.001 -32.6655C466.026 -12.4613 318.62 112.033 429.907 201.321C531.896 283.148 733.216 137.731 738.565 368.069C742.226 525.769 787.609 588.17 912.785 632.79" stroke="black"/>
<path d="M319.731 -40.4536C473.756 -20.2494 326.35 104.245 437.637 193.533C539.626 275.36 740.946 129.943 746.295 360.281C749.956 517.981 795.339 580.382 920.515 625.002" stroke="black"/>
<path d="M327.461 -48.2421C481.486 -28.0379 334.08 96.4561 445.367 185.744C547.356 267.572 748.676 122.154 754.025 352.493C757.686 510.193 803.069 572.593 928.245 617.213" stroke="black"/>
<path d="M335.191 -56.0303C489.216 -35.8261 341.81 88.6679 453.097 177.956C555.086 259.783 756.406 114.366 761.755 344.704C765.416 502.405 810.799 564.805 935.975 609.425" stroke="black"/>
<path d="M342.921 -63.8187C496.946 -43.6145 349.54 80.8794 460.827 170.167C562.816 251.995 764.136 106.578 769.484 336.916C773.146 494.616 818.529 557.016 943.705 601.637" stroke="black"/>
<path d="M350.651 -71.6069C504.676 -51.4027 357.27 73.0912 468.557 162.379C570.546 244.207 771.866 98.7894 777.214 329.128C780.876 486.828 826.259 549.228 951.435 593.848" stroke="black"/>
<path d="M358.381 -79.3954C512.406 -59.1912 365 65.3028 476.287 154.591C578.276 236.418 779.596 91.0009 784.944 321.339C788.606 479.04 833.989 541.44 959.165 586.06" stroke="black"/>
<path d="M366.111 -87.1836C520.136 -66.9794 372.73 57.5146 484.017 146.803C586.006 228.63 787.326 83.2127 792.674 313.551C796.336 471.251 841.719 533.652 966.895 578.272" stroke="black"/>
<path d="M373.841 -94.972C527.866 -74.7678 380.46 49.7261 491.747 139.014C593.736 220.842 795.056 75.4243 800.404 305.763C804.066 463.463 849.449 525.863 974.625 570.483" stroke="black"/>
<path d="M381.571 -102.76C535.596 -82.5559 388.19 41.938 499.477 131.226C601.466 213.053 802.786 67.6362 808.134 297.975C811.796 455.675 857.179 518.075 982.355 562.695" stroke="black"/>
<path d="M389.301 -110.548C543.326 -90.3443 395.92 34.1497 507.207 123.438C609.196 205.265 810.516 59.8479 815.864 290.186C819.526 447.887 864.909 510.287 990.085 554.907" stroke="black"/>
<path d="M397.031 -118.337C551.056 -98.1326 403.65 26.3614 514.937 115.649C616.926 197.477 818.246 52.0595 823.594 282.398C827.256 440.098 872.639 502.498 997.815 547.118" stroke="black"/>
<path d="M404.762 -126.125C558.786 -105.921 411.38 18.573 522.668 107.861C624.656 189.688 825.977 44.2712 831.325 274.61C834.986 432.31 880.369 494.71 1005.55 539.33" stroke="black"/>
<path d="M412.491 -133.913C566.516 -113.709 419.11 10.7848 530.397 100.073C632.386 181.9 833.706 36.483 839.054 266.821C842.716 424.522 888.099 486.922 1013.27 531.542" stroke="black"/>
<path d="M420.222 -141.702C574.246 -121.497 426.84 2.9965 538.128 92.2845C640.116 174.112 841.437 28.6947 846.785 259.033C850.446 416.733 895.829 479.134 1021.01 523.754" stroke="black"/>
<path d="M427.951 -149.49C581.976 -129.286 434.57 -4.79183 545.857 84.4962C647.845 166.324 849.166 20.9063 854.514 251.245C858.176 408.945 903.559 471.345 1028.73 515.965" stroke="black"/>
<path d="M435.682 -157.278C589.706 -137.074 442.3 -12.5802 553.588 76.7078C655.576 158.535 856.897 13.118 862.245 243.456C865.906 401.157 911.289 463.557 1036.47 508.177" stroke="black"/>
<path d="M443.411 -165.067C597.436 -144.862 450.03 -20.3685 561.317 68.9195C663.305 150.747 864.626 5.32967 869.974 235.668C873.636 393.368 919.019 455.769 1044.19 500.389" stroke="black"/>
</g>
</svg>
